<?xml version="1.0" encoding="UTF-8"?>
<svg id="Layer_1" data-name="Layer 1" xmlns="http://www.w3.org/2000/svg" viewBox="0 0 1763 1044">
  <defs>
    <style>
      .cls-1 {
        fill: #0b0d0e;
      }

      .cls-2 {
        fill: #0e1011;
      }

      .cls-3 {
        fill: #0a0c0d;
      }

      .cls-4 {
        fill: #fada05;
      }

      .cls-5 {
        fill: #fbda04;
      }

      .cls-6 {
        fill: #0d0e0f;
      }

      .cls-7 {
        fill: #050708;
      }

      .cls-8 {
        fill: #080a0b;
      }
    </style>
  </defs>
  <path class="cls-7" d="M270,0v421h238c-.06,68.41,29.43,127.47,99.81,143.69,111.7,25.74,189.54-33.93,195.23-147.15l-.04-204.54c36.32-.02,72.68.02,109-.01-36.3-36.66-72.52-73.51-109-109.99V0h483l38.19,5.31c125.1,22.64,232.39,110.64,281.99,227.01,42.52,99.75,41.92,217.93-.18,317.68-61.92,15.96-98.24,74.31-93,137-14.68,12.56-28.99,25.47-44.68,36.82-57.58,41.65-125.31,67.7-196.78,72.22l-266.54-.04v-157c-7.33,7.93-13.11,17.18-20.02,25.48-67.84,81.45-169.59,119.91-273.48,129.52-152.98,14.15-333.47-20.9-420.52-159.47l-20.98-37.52v200H0V0h270ZM1035,582.99l154.54.05c121.67-6.27,205.57-124.43,168.48-241.56-23.27-73.46-91.49-124.77-168.48-128.52l-115.55.04c-2.31,109.09,9.57,220.97-22.97,326.53-4.56,14.78-10.26,29.16-16.01,43.47Z"/>
  <path class="cls-4" d="M700,0l103,103c36.48,36.48,72.7,73.33,109,109.99-36.32.03-72.68-.01-109,.01-53.98.03-108.01.41-161.98-.52L429,0h271Z"/>
  <path class="cls-1" d="M1519,1044v-88h16c.45,0-.34,7.88,0,9,6.71-9.45,13.7-11.72,25.25-9.76,20.63,3.51,21.8,42.22,12.57,56.09-7.32,11-23.45,13.63-33.37,4.7l-4.45-6.03v33.99h-16.01ZM1557.66,971.34c-5.29-5.29-17.99-4.64-21.43,2.39-1.81,3.69-1.78,20.1-1.14,24.68,1.92,13.58,24.35,12.43,25.93-.89.74-6.25,1.05-21.77-3.36-26.18Z"/>
  <path class="cls-8" d="M556,1044v-88h16c.45,0-.34,7.88.01,8.99,2.25-1.52,2.63-4.5,5.03-6.46,8.69-7.11,25.37-4.24,31.8,5.13,14.62,21.32,4.36,70.36-29.79,54.79l-7.04-7.45v32.99h-16.01ZM574.34,1004.65c5.8,5.86,18.59,4.32,22.16-3.65,1.97-4.4,2.25-18.46,1.27-23.28-2.53-12.44-22.52-12.75-25.32-3.78-1.01,3.24-.98,21.6-.49,25.59.23,1.87,1.08,3.79,2.39,5.11Z"/>
  <path class="cls-2" d="M1763,489v11c-6.16,25.71-32.78,40.37-57.02,27.52-27.48-14.57-26.1-55.92,2.32-68.71,24.29-10.93,50.26,4.58,54.69,30.19ZM1718.76,463.26c-37.14,5.44-32.01,64.8,8.62,61.62,40.21-3.15,35.59-68.1-8.62-61.62Z"/>
  <path class="cls-8" d="M1763,1008v7c-2.67,6.98-16.13,9.06-19.25,1.75-6.57-15.43,13.12-22.85,19.25-8.75Z"/>
  <path class="cls-5" d="M1762,660c.4,7,.4,16,0,23-3.7,65.4-65.82,117.44-130.49,113.99-58.06-3.09-113.57-50.83-118.51-109.99-5.24-62.69,31.08-121.04,93-137,72.67-18.72,151.7,34.04,156,110Z"/>
  <path class="cls-3" d="M833,929v91h-16c-.5,0,.38-8.83-.01-9.99l-5.52,6.97c-9.62,7.6-24.93,4.86-31.91-5.04-10.2-14.47-8.34-54.51,13.93-56.94,11.42-1.25,16.77.94,23.5,10v-36h16ZM799.73,968.23c-3.59.74-7.73,4.94-8.52,8.48-.71,3.18-.71,19.41,0,22.58,2.52,11.16,23.18,11.7,25.58,1,.74-3.29.74-21.3,0-24.58-1.6-7.07-10.91-8.74-17.06-7.48Z"/>
  <path class="cls-2" d="M1008.13,983.13l6.86,37.86h-11.99s-6.94-36.56-6.94-36.56c-1.22-.88-19.55-.74-20.18.16l-11.98,36.31-10.9.1,29.96-87.54c1.56-1.04,33.27-.79,37.42-.33,30.36,3.31,9.53,47.85-12.24,50ZM980,974h28.5c.4,0,6.17-3.34,7-4,5.69-4.54,14.93-25.08,2.94-26.94-3.16-.49-27.73-.64-28.55.53l-9.89,30.41Z"/>
  <path class="cls-8" d="M764,992h-42c-1.54,19.29,21.84,20.86,31.5,8.02,5.87,6.82,11.33,8.47,2.41,15.39-9.79,7.59-28.36,7.96-38.41.59-19.88-14.58-15.63-57.59,11.11-60.89,25.56-3.15,36.85,12.94,35.39,36.89ZM747,982c2.36-20.97-26.24-19.89-25,0h25Z"/>
  <path class="cls-8" d="M1728,992h-43c-.39,19.02,21.64,21.34,31.5,8.02,7.95,7.78,13.11,9.85.81,16.79-7.28,4.11-15.52,5.13-23.81,4.2-33.4-3.73-33.47-63.41.96-66.05,24.99-1.91,33.65,14.27,33.54,37.04ZM1711,982c1.43-21.32-26.33-20.49-26,0h26Z"/>
  <path class="cls-3" d="M1442,1020h-16v-42.5c0-.92-2.12-6.06-2.97-7.03-5.06-5.82-20.03-.81-20.03,5.03v44.5h-16v-64h16c.5,0-.76,9.97.5,10.01,4.98-14.26,27.34-15.3,34.71-2.72,1.09,1.87,3.79,9.47,3.79,11.21v45.5Z"/>
  <path class="cls-3" d="M478,1020h-16v-45.5c0-.95-3.45-4.76-4.63-5.37-4.75-2.48-17.37-.05-17.37,5.37v45.5h-16v-64h16c.45,0-.72,8.96.5,9.01,4.13-12.27,24.97-13.61,32.52-4.53.95,1.14,4.98,9.12,4.98,10.02v49.5Z"/>
  <path class="cls-3" d="M1113,933l-3.66,10.05-42.24.06-9.1,28.9h39c.31,1.55-1.36,8.73-2.66,9.05l-39.36.44-10.98,30.52h42c-.21,1.59-2.41,9-3.5,9h-52.5l30-88h53Z"/>
  <path class="cls-3" d="M1320,933c.69.66-2.59,9.78-3.67,10.04l-42.23.07-9.1,28.9h39c.31,1.55-1.36,8.73-2.66,9.05l-39.36.44-10.98,30.52h42c-.21,1.59-2.41,9-3.5,9h-51.5l29-88h53Z"/>
  <path class="cls-2" d="M1119,995l-17,25.5c-1.43.86-7.59.76-9.51.51-1.39-.19-1.73.55-1.47-1.48l60.19-86.31,11.8-.21c1.96,29.24.59,58.69,1,88.01-1.79-.33-9.4.48-9.96-.06-1.79-1.75-.73-22.03-1.05-25.95h-34ZM1154,985v-35.5c0-.34-1.32-1.47-1.01-2.5-7.47,11.08-18.2,23.08-24.8,34.69-.64,1.12-1.51,1.8-1.19,3.31h27Z"/>
  <path class="cls-3" d="M525.76,997.23c-2.4-2.42-18.49-3.38-23.78-5.71-14.19-6.27-13.29-27.47.7-34.34,8.86-4.35,32.79-3.18,37.88,6.83.95,1.87-7.29,9.76-8.2,9.92-1.03.18-5.18-3.79-7.12-4.67-5.07-2.31-18.18-3.72-18.16,4.24s15.33,7.38,20.94,8.98c23.07,6.58,17.17,35.59-4.6,38.43-4.32.56-12.15.42-16.46-.37-3.66-.67-16.99-7.61-17-11.05,0-1.35,8.36-8.54,9.54-8.54,1.9,0,9.59,8.19,17.91,7.94,6.16-.19,13.63-6.36,8.35-11.67Z"/>
  <path class="cls-3" d="M1471.74,955.24c4.32-.73,14.04-.68,18.32.2,2.56.53,13.25,6.13,13.88,8.19s-6.11,8.8-7.66,9.23c-2.64.73-9.73-5.76-15.83-5.89-7.78-.17-13.74,7.83-6.83,11.9,8.45,4.98,26.63.4,31.42,14.58,8.62,25.49-25.78,34.15-43.97,22.97-11.75-7.22-6.23-8.78,1.55-16.35,1.58-.28,5.38,4.94,7.66,6.13,5.69,2.98,19.22,4.52,20.55-3.93s-17.32-7.77-23.53-10.09c-18.72-7-14.63-33.75,4.42-36.95Z"/>
  <path class="cls-6" d="M951,957c1.42-14.24-11.41-17.74-23.05-14.54-12.34,3.39-21.09,16.1-25.72,27.28-4.22,10.19-13.59,34.95-.94,41.46,9.05,4.66,20.7.67,28.17-5.22,2.28-1.79,7.5-8.96,8.1-9.05,2.19-.32,5.57,3.24,7.35,4.67-9.32,21.62-57.78,33.43-60.92,1.89-1.92-19.3,11.89-49.87,26.98-62,13.08-10.52,41.55-16.4,49.21,2.81,3.77,9.46-.57,10.46-9.19,12.7Z"/>
  <path class="cls-2" d="M1257,933l-3.66,10.04-28.2.09-26.75,77.92c-2.88-.31-6.11.27-8.91-.06-1.35-.16-1.82.52-1.38-1.38l25.89-76.62h-27c.1-1.11,1.49-10,2-10h68Z"/>
  <path class="cls-6" d="M678,956l.5,12.01c3.04-9.16,11.09-13.16,20.5-12.01v15c-6.71-.55-21,.39-21,9.5v39.5h-16v-64h16Z"/>
  <path class="cls-3" d="M1642,956l.5,11.01c3.54-8.76,11.25-12.16,20.5-11.01v15c-4.18-1.01-21,.99-21,6.5v42.5h-16v-64h16Z"/>
  <rect class="cls-3" x="629" y="956" width="16" height="64"/>
  <rect class="cls-3" x="390" y="956" width="16" height="64"/>
  <rect class="cls-2" x="1354" y="956" width="16" height="64"/>
  <rect class="cls-2" x="1592" y="956" width="16" height="64"/>
  <path class="cls-3" d="M867.7,1018.71c-3.59,4.25-15.92,3.47-17.48-3.42-2.23-9.85,2.06-15.74,12.34-14.34,7.5,1.02,9.57,12.53,5.15,17.76Z"/>
  <path class="cls-3" d="M1322.71,1001.22c8.79-1.99,15.62,2.55,14.07,12.03-1.18,7.25-7.49,9.04-14.08,7.54-8.52-1.94-7.78-17.81,0-19.57Z"/>
  <path class="cls-1" d="M1595.7,929.21c7.91-2.32,15.08,1.21,14.25,10.17-.68,7.22-7.06,8.84-13.43,7.6-7.57-1.48-7.56-15.79-.81-17.77Z"/>
  <path class="cls-1" d="M393.71,929.22c7.83-1.84,15.14.84,14.1,10.02-.83,7.33-6.79,9.01-13.29,7.74-7.36-1.44-7.94-16.08-.81-17.76Z"/>
  <path class="cls-6" d="M1357.71,929.22c9.1-2.06,15.28,2.41,13.07,12.07-1.3,5.71-8.08,6.64-13.07,5.49-7.89-1.81-7.88-15.78,0-17.57Z"/>
  <path class="cls-1" d="M632.71,929.22c9.62-2.15,15.99,3.12,13.08,13.08-1.77,6.04-14.4,6.55-17.24,1.65-2.63-4.53-1.77-13.4,4.16-14.73Z"/>
  <path class="cls-3" d="M1731.5,475c12.03,2.13,12.97,21.03.52,24.49l9.98,13.5c-3.05-.32-7.18.78-9.99-.5-4.34-1.98-7.58-14.93-14.01-13.49v14h-8v-38c6.48.8,15.36-1.09,21.5,0ZM1730.76,491.76c1.52-1.53,1.89-6.63.26-8.29-2.49-2.52-9.6-1.13-13.03-1.48v11.01c3.11-.34,10.6.94,12.77-1.24Z"/>
</svg>